<svg id="Layer_1" data-name="Layer 1" xmlns="http://www.w3.org/2000/svg" viewBox="0 0 1159.7039 1857.60045"><defs><style>.cls-1{fill:#14c3ec;}.cls-2{fill:#fef2df;}.cls-3{fill:#fe35b6;}.cls-4{fill:#fe48ba;}.cls-5{fill:#fefefe;}</style></defs><path class="cls-1" d="M1124.75823,926.45192c.00225,230.51623.6678,461.03506-.23317,691.54775-.59434,152.08927-68.01445,218.27468-222.212,218.82241q-323.108,1.14793-646.22253-.013c-153.87683-.58012-220.72082-66.75115-220.92861-219.88876q-.93841-691.54728.09688-1383.0962c.27045-145.54485,68.6609-212.24625,216.24654-212.89834q328.77377-1.4527,657.55827.01639c146.9003.688,214.67449,67.83418,215.39148,213.9626C1125.58609,465.41542,1124.75581,695.93568,1124.75823,926.45192Z"/><path class="cls-2" d="M125.755,921.8034q-.0046-323.46514.04946-646.93011c.01143-26.46638-2.41433-53.44783,1.807-79.28931,8.30051-50.81353,40.10778-79.51662,92.10546-83.57557,45.11933-3.522,79.66833,2.96836,90.71149,59.45725,10.81874,55.34178,53.645,77.2728,109.99938,76.56973q158.87613-1.98207,317.79062.06362c56.43871.81982,99.46465-21.00935,110.65029-75.90931,11.36034-55.7576,44.5035-63.55864,90.212-60.35068,52.37623,3.676,82.95162,32.34551,93.15393,82.69822,2.95875,14.60249,1.63545,30.14909,1.6377,45.26293q.10473,686.65493-.31146,1373.30908c-.20233,106.19117-27.41206,132.21284-135.54213,132.762q-317.79357,1.61409-635.60066.00711c-112.4685-.56973-136.0655-25.7194-136.44534-143.09556C125.238,1375.79186,125.75807,1148.79672,125.755,921.8034Z"/><path class="cls-3" d="M307.36692,991.05624c1.66559-138.717,93.53728-215.03533,209.89658-186.7234,49.47811,12.03871,96.52037,16.21052,144.10093-.71627,29.64516-10.54631,59.453-15.76993,88.30508-3.29314,43.18549,18.67539,101.3454,29.484,39.02515,97.24812-44.705,48.61033-35.60466,104.98745,11.30421,151.87274,27.04906,27.03546,58.79435,51.67828,23.8782,93.24781-40.25862,47.92982-72.13929,118.19567-149.71259,98.43573-57.35448-14.60985-108.68943-21.99182-164.55119,1.078-35.348,14.5979-65.616-4.2534-91.93578-28.57394C347.53433,1148.81673,314.18893,1067.284,307.36692,991.05624Z"/><path class="cls-4" d="M714.6392,687.58531c-2.76932,43.14083-73.61511,107.6006-108.40152,103.03653-19.14056-2.51121-24.45072-15.13983-24.50052-30.64628-.11875-37.00355,73.02622-101.76958,109.44817-99.563C712.81545,661.72292,711.19177,677.53806,714.6392,687.58531Z"/><circle class="cls-5" cx="414.95636" cy="168.05549" r="28.47781"/><rect class="cls-5" x="473.74926" y="139.57768" width="299.47634" height="56.95562" rx="28.47778"/></svg>