<?xml version="1.0" encoding="utf-8"?>
<!-- Generator: Adobe Illustrator 26.0.1, SVG Export Plug-In . SVG Version: 6.00 Build 0)  -->
<svg version="1.1" id="Layer_1" xmlns="http://www.w3.org/2000/svg" xmlns:xlink="http://www.w3.org/1999/xlink" x="0px" y="0px"
	 viewBox="0 0 480.8 419.6" style="enable-background:new 0 0 480.8 419.6;" xml:space="preserve">
<style type="text/css">
	.st0{fill:none;stroke:#000000;stroke-linecap:round;stroke-linejoin:round;stroke-miterlimit:10;}
	.st1{fill:none;stroke:#FFD338;stroke-width:2;stroke-linecap:round;stroke-linejoin:round;stroke-miterlimit:10;}
	.st2{fill:none;stroke:#FFD338;stroke-linecap:round;stroke-linejoin:round;stroke-miterlimit:10;}
	.st3{fill:#FFD338;}
</style>
<path class="st0" d="M419.7,310l-107.1,61.7"/>
<path class="st0" d="M312.9,47.7l106.9,61.7"/>
<path class="st0" d="M315.2,222.4L421.8,284 M420.7,135.2l-106.9,60.4 M288.3,239.8v119.1 M440.9,150.1V270 M288.3,61.3v119.5"/>
<path id="svg-concept" class="st1" d="M317.8,210.3c0,16.3-13.2,29.5-29.5,29.5s-29.5-13.2-29.5-29.5s13.2-29.5,29.5-29.5
	S317.8,194,317.8,210.3z M476.5,120.8c0,16.3-13.2,29.5-29.5,29.5s-29.5-13.2-29.5-29.5s13.2-29.5,29.5-29.5
	S476.5,104.5,476.5,120.8z"/>
<path class="st0" d="M317.8,31.3c0,16.3-13.2,29.5-29.5,29.5s-29.5-13.2-29.5-29.5S272,1.8,288.3,1.8S317.8,15,317.8,31.3z
	 M317.8,388.4c0,16.3-13.2,29.5-29.5,29.5s-29.5-13.2-29.5-29.5s13.2-29.5,29.5-29.5S317.8,372.1,317.8,388.4z"/>
<path id="svg-concept_00000104673087817860348630000016683627269734732193_" class="st1" d="M476.5,298.8
	c0,16.3-13.2,29.5-29.5,29.5s-29.5-13.2-29.5-29.5s13.2-29.5,29.5-29.5S476.5,282.5,476.5,298.8z"/>
<g>
	<path class="st0" d="M234.7,311c0,14.5-35.4,26.2-79,26.2s-79-11.7-79-26.2v-52.7c0-14.5,35.4-26.2,79-26.2s79,11.7,79,26.2V311z"
		/>
	<path id="svg-concept_00000111187508521870933760000009934542606093434508_" class="st2" d="M206,307.7c0,4-3.3,7.3-7.3,7.3
		s-7.3-3.3-7.3-7.3s3.3-7.3,7.3-7.3S206,303.7,206,307.7z"/>
	<path id="svg-concept_00000078759032301346408660000011077446114228544131_" class="st2" d="M201.4,307.7c0,1.5-1.2,2.7-2.7,2.7
		s-2.7-1.2-2.7-2.7s1.2-2.7,2.7-2.7S201.4,306.2,201.4,307.7z M206,307.7h-4.6 M195.9,307.7h-4.5"/>
	<path class="st0" d="M234.7,258.3c0,14.5-35.4,26.2-79,26.2s-79-11.7-79-26.2"/>
	<path id="svg-concept_00000110465171891256379730000012049317471326538665_" class="st2" d="M162,372.7c0,4.5-3.7,8.2-8.2,8.2
		s-8.2-3.7-8.2-8.2s3.6-8.2,8.2-8.2C158.3,364.6,162,368.2,162,372.7z M153.8,348.3v16.3 M100.1,372.7h45.5 M162,372.7h45.5"/>
</g>
<g>
	<path class="st0" d="M162,169.2v52.7c0,14.5-35.4,26.2-79,26.2S4,236.4,4,221.9v-52.7"/>
	<path class="st0" d="M4,169.2C4,154.7,39.4,143,83,143s79,11.7,79,26.2"/>
	<path id="svg-concept_00000102513254481749407440000001213412860390249608_" class="st2" d="M133.2,218.6c0,4-3.3,7.3-7.3,7.3
		s-7.3-3.3-7.3-7.3s3.3-7.3,7.3-7.3S133.2,214.5,133.2,218.6z"/>
	<path id="svg-concept_00000064319213785214648690000007577218901475532935_" class="st2" d="M128.6,218.6c0,1.5-1.2,2.7-2.7,2.7
		s-2.7-1.2-2.7-2.7s1.2-2.7,2.7-2.7S128.6,217.1,128.6,218.6z M133.2,218.6h-4.6 M123.2,218.6h-4.6"/>
	<path class="st0" d="M162,169.2c0,14.5-35.4,26.2-79,26.2S4,183.7,4,169.2"/>
	
		<animateMotion  accumulate="none" additive="replace" begin="0s" calcMode="paced" dur="3s" fill="freeze" path="M0, 0 73 0 73 36.2 36.2" restart="always">
		</animateMotion>
</g>
<g>
	<path class="st0" d="M258.2,137.8c0,14.5-35.4,26.2-79,26.2s-79-11.7-79-26.2V85.1c0-14.5,35.4-26.2,79-26.2s79,11.7,79,26.2V137.8
		z"/>
	<path id="svg-concept_00000123438897282295270500000002056415603952202370_" class="st2" d="M229.4,134.5c0,4-3.3,7.3-7.3,7.3
		s-7.3-3.3-7.3-7.3s3.3-7.3,7.3-7.3S229.4,130.5,229.4,134.5z"/>
	<path id="svg-concept_00000137815631076154203610000004585756446860788893_" class="st2" d="M224.8,134.5c0,1.5-1.2,2.7-2.7,2.7
		s-2.7-1.2-2.7-2.7s1.2-2.7,2.7-2.7S224.8,133,224.8,134.5z M229.4,134.5h-4.6 M219.4,134.5h-4.6"/>
	<path class="st0" d="M258.2,85.1c0,14.5-35.4,26.2-79,26.2s-79-11.7-79-26.2"/>
	
		<animateMotion  accumulate="none" additive="replace" begin="3s" calcMode="paced" dur="2s" fill="freeze" path="M0, 0 -23 0 -23 67.8 67.8" restart="always">
		</animateMotion>
</g>
<g>
	<path id="svg-ico" class="st3" d="M325.8,191c0,3.4-2.6,6-6,6s-6-2.6-6-6s2.6-6,6-6C323.2,185,325.8,187.6,325.8,191z"/>
	
		<animateMotion  accumulate="none" additive="replace" begin="0s" calcMode="paced" dur="5s" fill="remove" path="M0 0 97 -55 0 0" repeatCount="indefinite" restart="always">
		</animateMotion>
</g>
<g>
	<path id="svg-ico_00000182520274789123803970000002065450089047008952_" class="st3" d="M327.2,226.7c0,3.4-2.6,6-6,6s-6-2.6-6-6
		s2.6-6,6-6C324.4,220.7,327.2,223.3,327.2,226.7z"/>
	
		<animateMotion  accumulate="none" additive="replace" begin="0s" calcMode="paced" dur="3s" fill="remove" path="M0 0 97 55 0 0" repeatCount="indefinite" restart="always">
		</animateMotion>
</g>
<g>
	<path id="svg-ico_00000021832784685474019240000014414899506727103894_" class="st3" d="M446.9,157c0,3.4-2.6,6-6,6s-6-2.6-6-6
		s2.6-6,6-6S446.9,153.6,446.9,157z"/>
	
		<animateMotion  accumulate="none" additive="replace" begin="0s" calcMode="paced" dur="3s" fill="remove" path="M0, 110 0 0 0 110" repeatCount="indefinite" restart="always">
		</animateMotion>
</g>
</svg>
