<svg id="Ñëîé_1" data-name="Ñëîé 1" xmlns="http://www.w3.org/2000/svg" xmlns:xlink="http://www.w3.org/1999/xlink" viewBox="0 0 404.01 321.34"><defs><style>.cls-1{opacity:0.4;}.cls-2,.cls-3,.cls-4{fill:#fff;}.cls-3{opacity:0.2;}.cls-27,.cls-4{opacity:0.5;}.cls-5{fill:#7dc3ea;}.cls-6{fill:url(#Áåçûìÿííûé_ãðàäèåíò_3);}.cls-7{fill:url(#Áåçûìÿííûé_ãðàäèåíò_9);}.cls-8{fill:url(#Áåçûìÿííûé_ãðàäèåíò_4);}.cls-9{fill:url(#Áåçûìÿííûé_ãðàäèåíò_3-2);}.cls-10{fill:url(#Áåçûìÿííûé_ãðàäèåíò_9-2);}.cls-11{fill:url(#Áåçûìÿííûé_ãðàäèåíò_4-2);}.cls-12{fill:url(#Áåçûìÿííûé_ãðàäèåíò_3-3);}.cls-13{fill:url(#Áåçûìÿííûé_ãðàäèåíò_9-3);}.cls-14{fill:url(#Áåçûìÿííûé_ãðàäèåíò_4-3);}.cls-15{fill:url(#Áåçûìÿííûé_ãðàäèåíò_3-4);}.cls-16{fill:url(#Áåçûìÿííûé_ãðàäèåíò_9-4);}.cls-17{fill:url(#Áåçûìÿííûé_ãðàäèåíò_4-4);}.cls-18{fill:url(#Áåçûìÿííûé_ãðàäèåíò_18);}.cls-19{fill:url(#Áåçûìÿííûé_ãðàäèåíò_9-5);}.cls-20{fill:#5793ce;}.cls-21{fill:url(#Áåçûìÿííûé_ãðàäèåíò_441);}.cls-22,.cls-27{fill:#173d7a;}.cls-23{fill:#396caa;}.cls-24{fill:#06033e;opacity:0.3;}.cls-25{fill:#d4ecff;}.cls-26{fill:#ff2c9c;}.cls-28{fill:url(#Áåçûìÿííûé_ãðàäèåíò_13);}.cls-29{fill:url(#Áåçûìÿííûé_ãðàäèåíò_45);}.cls-30{fill:url(#Áåçûìÿííûé_ãðàäèåíò_13-2);}.cls-31{fill:url(#Áåçûìÿííûé_ãðàäèåíò_45-2);}.cls-32{fill:url(#Áåçûìÿííûé_ãðàäèåíò_13-3);}.cls-33{fill:url(#Áåçûìÿííûé_ãðàäèåíò_45-3);}</style><radialGradient id="Áåçûìÿííûé_ãðàäèåíò_3" cx="93.22" cy="260.88" r="33.67" gradientUnits="userSpaceOnUse"><stop offset="0" stop-color="#274f89"/><stop offset="1" stop-color="#173d7a"/></radialGradient><linearGradient id="Áåçûìÿííûé_ãðàäèåíò_9" x1="72.77" y1="248.66" x2="132.35" y2="248.66" gradientUnits="userSpaceOnUse"><stop offset="0" stop-color="#d4ecff"/><stop offset="0.24" stop-color="#d0eafe"/><stop offset="0.46" stop-color="#c5e2f9"/><stop offset="0.67" stop-color="#b2d6f2"/><stop offset="0.88" stop-color="#98c4e7"/><stop offset="1" stop-color="#86b8e0"/></linearGradient><radialGradient id="Áåçûìÿííûé_ãðàäèåíò_4" cx="44.82" cy="226.04" r="60.86" gradientUnits="userSpaceOnUse"><stop offset="0" stop-color="#699dd1"/><stop offset="0.27" stop-color="#6396cc"/><stop offset="0.64" stop-color="#5184bd"/><stop offset="1" stop-color="#396caa"/></radialGradient><radialGradient id="Áåçûìÿííûé_ãðàäèåíò_3-2" cx="346.17" cy="120.39" r="33.67" xlink:href="#Áåçûìÿííûé_ãðàäèåíò_3"/><linearGradient id="Áåçûìÿííûé_ãðàäèåíò_9-2" x1="325.71" y1="108.17" x2="385.29" y2="108.17" xlink:href="#Áåçûìÿííûé_ãðàäèåíò_9"/><radialGradient id="Áåçûìÿííûé_ãðàäèåíò_4-2" cx="297.76" cy="85.54" r="60.86" xlink:href="#Áåçûìÿííûé_ãðàäèåíò_4"/><radialGradient id="Áåçûìÿííûé_ãðàäèåíò_3-3" cx="346.17" cy="260.88" r="33.67" xlink:href="#Áåçûìÿííûé_ãðàäèåíò_3"/><linearGradient id="Áåçûìÿííûé_ãðàäèåíò_9-3" x1="325.71" y1="248.66" x2="385.29" y2="248.66" xlink:href="#Áåçûìÿííûé_ãðàäèåíò_9"/><radialGradient id="Áåçûìÿííûé_ãðàäèåíò_4-3" cx="297.76" cy="226.04" r="60.86" xlink:href="#Áåçûìÿííûé_ãðàäèåíò_4"/><radialGradient id="Áåçûìÿííûé_ãðàäèåíò_3-4" cx="93.22" cy="120.39" r="33.67" xlink:href="#Áåçûìÿííûé_ãðàäèåíò_3"/><linearGradient id="Áåçûìÿííûé_ãðàäèåíò_9-4" x1="72.77" y1="108.17" x2="132.35" y2="108.17" xlink:href="#Áåçûìÿííûé_ãðàäèåíò_9"/><radialGradient id="Áåçûìÿííûé_ãðàäèåíò_4-4" cx="44.82" cy="85.54" r="60.86" xlink:href="#Áåçûìÿííûé_ãðàäèåíò_4"/><radialGradient id="Áåçûìÿííûé_ãðàäèåíò_18" cx="366.99" cy="156.07" r="121.15" gradientUnits="userSpaceOnUse"><stop offset="0" stop-color="#396caa"/><stop offset="1" stop-color="#274f89"/></radialGradient><linearGradient id="Áåçûìÿííûé_ãðàäèåíò_9-5" x1="328.89" y1="70.13" x2="441.85" y2="138.95" xlink:href="#Áåçûìÿííûé_ãðàäèåíò_9"/><linearGradient id="Áåçûìÿííûé_ãðàäèåíò_441" x1="26.18" y1="1320.05" x2="92.57" y2="1305.01" gradientTransform="matrix(0.87, 0.5, 0, 1.15, 302.94, -1367.57)" gradientUnits="userSpaceOnUse"><stop offset="0" stop-color="#3919bb"/><stop offset="1" stop-color="#6507fa"/></linearGradient><radialGradient id="Áåçûìÿííûé_ãðàäèåíò_13" cx="353.5" cy="299.77" r="43.62" xlink:href="#Áåçûìÿííûé_ãðàäèåíò_4"/><linearGradient id="Áåçûìÿííûé_ãðàäèåíò_45" x1="361.73" y1="285.78" x2="430.07" y2="326.52" gradientUnits="userSpaceOnUse"><stop offset="0" stop-color="#d4ecff"/><stop offset="0.2" stop-color="#d0eafe"/><stop offset="0.39" stop-color="#c5e2f9"/><stop offset="0.57" stop-color="#b2d6f2"/><stop offset="0.74" stop-color="#98c4e7"/><stop offset="0.84" stop-color="#86b8e0"/></linearGradient><radialGradient id="Áåçûìÿííûé_ãðàäèåíò_13-2" cx="479.98" cy="211.85" r="43.62" xlink:href="#Áåçûìÿííûé_ãðàäèåíò_4"/><linearGradient id="Áåçûìÿííûé_ãðàäèåíò_45-2" x1="488.21" y1="197.86" x2="556.54" y2="238.6" xlink:href="#Áåçûìÿííûé_ãðàäèåíò_45"/><radialGradient id="Áåçûìÿííûé_ãðàäèåíò_13-3" cx="227.03" cy="211.85" r="43.62" xlink:href="#Áåçûìÿííûé_ãðàäèåíò_4"/><linearGradient id="Áåçûìÿííûé_ãðàäèåíò_45-3" x1="235.27" y1="197.86" x2="303.6" y2="238.6" xlink:href="#Áåçûìÿííûé_ãðàäèåíò_45"/></defs><g class="cls-1"><path class="cls-2" d="M542,128.88l-31.29-18.06L542,92.76l.27.16,31,17.9ZM512.9,110.82,542,127.6,571,110.82,542,94Z" transform="translate(-169.25 -40.07)"/><path class="cls-2" d="M481.61,128.88l-31.28-18.06,31.28-18.06,31.29,18.06Zm-29.07-18.06,29.07,16.78,29.07-16.78L481.61,94Z" transform="translate(-169.25 -40.07)"/><path class="cls-2" d="M511.79,146.31l-.28-.16-31-17.91,31.29-18.06,31.28,18.06Zm-29.07-18.07L511.79,145l29.07-16.79-29.07-16.78Z" transform="translate(-169.25 -40.07)"/><path class="cls-2" d="M542,163.73l-.28-.16-31-17.9L542,127.6l.27.16,31,17.91ZM512.9,145.67,542,162.45,571,145.67,542,128.88Z" transform="translate(-169.25 -40.07)"/><path class="cls-2" d="M421.26,128.88l-.28-.16-31-17.9,31.29-18.06.27.16,31,17.9Zm-29.07-18.06,29.07,16.78,29.07-16.78L421.26,94Z" transform="translate(-169.25 -40.07)"/><path class="cls-2" d="M451.44,146.31l-31.29-18.07,31.29-18.06,31.28,18.06Zm-29.07-18.07L451.44,145l29.06-16.79-29.06-16.78Z" transform="translate(-169.25 -40.07)"/><path class="cls-2" d="M481.61,163.73l-.27-.16-31-17.9,31.28-18.07.28.16,31,17.91Zm-29.07-18.06,29.07,16.78,29.07-16.78-29.07-16.79Z" transform="translate(-169.25 -40.07)"/><path class="cls-2" d="M511.79,181.15l-.28-.16-31-17.9L511.79,145l.28.16,31,17.9Zm-29.07-18.06,29.07,16.78,29.07-16.78-29.07-16.78Z" transform="translate(-169.25 -40.07)"/><path class="cls-2" d="M542,198.57l-.28-.16-31-17.9L542,162.45l31.28,18.06ZM512.9,180.51,542,197.29,571,180.51,542,163.73Z" transform="translate(-169.25 -40.07)"/><path class="cls-2" d="M360.9,128.88l-.27-.16-31-17.9L360.9,92.76l.28.16,31,17.9Zm-29.07-18.06L360.9,127.6,390,110.82,360.9,94Z" transform="translate(-169.25 -40.07)"/><path class="cls-2" d="M391.08,146.3l-.27-.16-31-17.9,31.28-18.06.28.16,31,17.9ZM362,128.24,391.08,145l29.07-16.78-29.07-16.78Z" transform="translate(-169.25 -40.07)"/><path class="cls-2" d="M421.26,163.73l-.28-.16-31-17.91,31.29-18.06,31.28,18.07Zm-29.07-18.07,29.07,16.79,29.07-16.78-29.07-16.79Z" transform="translate(-169.25 -40.07)"/><path class="cls-2" d="M451.44,181.15l-31.29-18.06L451.44,145l.27.16,31,17.9Zm-29.07-18.06,29.07,16.78,29.07-16.78-29.07-16.78Z" transform="translate(-169.25 -40.07)"/><path class="cls-2" d="M481.61,198.57l-.27-.16-31-17.9,31.28-18.06.28.16,31,17.9Zm-29.07-18.06,29.07,16.78,29.07-16.78-29.07-16.78Z" transform="translate(-169.25 -40.07)"/><path class="cls-2" d="M511.79,216l-.27-.16-31-17.91,31.28-18.06.28.16,31,17.9Zm-29.07-18.07,29.07,16.79,29.07-16.79-29.07-16.78Z" transform="translate(-169.25 -40.07)"/><path class="cls-2" d="M542,233.42l-.28-.16-31-17.9L542,197.29l.27.16,31,17.91ZM512.9,215.36,542,232.14,571,215.36,542,198.57Z" transform="translate(-169.25 -40.07)"/><path class="cls-2" d="M300.55,128.88l-.28-.16-31-17.9,31.29-18.06.27.16,31,17.9Zm-29.07-18.06,29.07,16.78,29.07-16.78L300.55,94Z" transform="translate(-169.25 -40.07)"/><path class="cls-2" d="M330.73,146.3l-31.29-18.06,31.29-18.06.27.16,31,17.9Zm-29.07-18.06L330.73,145l29.07-16.78-29.07-16.78Z" transform="translate(-169.25 -40.07)"/><path class="cls-2" d="M360.91,163.73l-.28-.16-31-17.91L360.9,127.6l.28.16,31,17.9Zm-29.08-18.07,29.08,16.79L390,145.66,360.9,128.88Z" transform="translate(-169.25 -40.07)"/><path class="cls-2" d="M391.08,181.15l-.27-.16-31-17.9L391.08,145l.28.17,31,17.9ZM362,163.09l29.07,16.78,29.07-16.78L391.08,146.3Z" transform="translate(-169.25 -40.07)"/><path class="cls-2" d="M421.26,198.57,390,180.51l31.28-18.06,31.28,18.06Zm-29.07-18.06,29.07,16.78,29.07-16.78-29.07-16.78Z" transform="translate(-169.25 -40.07)"/><path class="cls-2" d="M451.44,216l-.28-.16-31-17.91,31.29-18.06.27.16,31,17.9Zm-29.07-18.07,29.07,16.79,29.07-16.79-29.07-16.78Z" transform="translate(-169.25 -40.07)"/><path class="cls-2" d="M481.61,233.42l-31.28-18.06,31.28-18.07.28.16,31,17.91Zm-29.07-18.06,29.07,16.78,29.07-16.78-29.07-16.79Z" transform="translate(-169.25 -40.07)"/><path class="cls-2" d="M511.79,250.84l-.27-.16-31-17.9,31.28-18.06.28.16,31,17.9Zm-29.07-18.06,29.07,16.78,29.07-16.78L511.79,216Z" transform="translate(-169.25 -40.07)"/><path class="cls-2" d="M542,268.27l-.28-.16-31-17.91L542,232.14l.28.16,31,17.9ZM512.9,250.2,542,267,571,250.2,542,233.42Z" transform="translate(-169.25 -40.07)"/><path class="cls-2" d="M240.2,128.88l-.28-.16-31-17.9,31.28-18.06.28.16,31,17.9Zm-29.08-18.06L240.2,127.6l29.06-16.78L240.19,94Z" transform="translate(-169.25 -40.07)"/><path class="cls-2" d="M270.37,146.3l-.27-.16-31-17.9,31.28-18.06.28.16,31,17.9ZM241.3,128.24,270.37,145l29.07-16.78-29.07-16.78Z" transform="translate(-169.25 -40.07)"/><path class="cls-2" d="M300.55,163.73l-.28-.16-31-17.91,31.28-18.06,31.28,18.06Zm-29.07-18.07,29.07,16.79,29.07-16.79-29.07-16.78Z" transform="translate(-169.25 -40.07)"/><path class="cls-2" d="M330.73,181.15l-31.29-18.06L330.73,145l.27.17,31,17.9Zm-29.07-18.06,29.07,16.78,29.07-16.78L330.73,146.3Z" transform="translate(-169.25 -40.07)"/><path class="cls-2" d="M360.91,198.57l-.28-.16-31-17.9,31.29-18.06.27.16,31,17.9Zm-29.07-18.06,29.07,16.78L390,180.51l-29.07-16.78Z" transform="translate(-169.25 -40.07)"/><path class="cls-2" d="M391.08,216,359.8,197.93l31.28-18.06,31.29,18.06ZM362,197.93l29.07,16.79,29.07-16.79-29.07-16.78Z" transform="translate(-169.25 -40.07)"/><path class="cls-2" d="M421.26,233.42l-.28-.16-31-17.9,31.28-18.07.28.16,31,17.91Zm-29.07-18.06,29.07,16.78,29.07-16.78-29.07-16.79Z" transform="translate(-169.25 -40.07)"/><path class="cls-2" d="M451.44,250.84l-.28-.16-31-17.9,31.29-18.06,31.28,18.06Zm-29.07-18.06,29.07,16.78,29.07-16.78L451.44,216Z" transform="translate(-169.25 -40.07)"/><path class="cls-2" d="M481.62,268.27,450.33,250.2l31.28-18.06.28.16,31,17.9ZM452.55,250.2,481.62,267l29.07-16.79-29.08-16.78Z" transform="translate(-169.25 -40.07)"/><path class="cls-2" d="M511.79,285.69l-.27-.16-31-17.9,31.28-18.07.28.16,31,17.91Zm-29.07-18.06,29.07,16.78,29.07-16.78-29.07-16.79Z" transform="translate(-169.25 -40.07)"/><path class="cls-2" d="M542,303.11l-.27-.16-31-17.9L542,267l.28.16,31,17.9ZM512.9,285.05,542,301.83,571,285.05,542,268.27Z" transform="translate(-169.25 -40.07)"/><path class="cls-2" d="M240.2,163.73l-.28-.16-31-17.91L240.2,127.6l.27.16,31,17.9Zm-29.07-18.07,29.07,16.79,29.07-16.79L240.2,128.88Z" transform="translate(-169.25 -40.07)"/><path class="cls-2" d="M270.37,181.15l-.27-.16-31-17.9L270.37,145l.28.16,31,17.91ZM241.3,163.09l29.07,16.78,29.07-16.78L270.37,146.3Z" transform="translate(-169.25 -40.07)"/><path class="cls-2" d="M300.55,198.57l-.27-.16-31-17.9,31.28-18.06,31.29,18.06Zm-29.07-18.06,29.07,16.78,29.07-16.78-29.07-16.78Z" transform="translate(-169.25 -40.07)"/><path class="cls-2" d="M330.73,216l-.28-.16-31-17.9,31.29-18.06.27.16,31,17.9Zm-29.07-18.06,29.07,16.79,29.07-16.79-29.07-16.78Z" transform="translate(-169.25 -40.07)"/><path class="cls-2" d="M360.91,233.42l-31.29-18.06,31.29-18.07,31.28,18.07Zm-29.07-18.06,29.07,16.78L390,215.36l-29.07-16.79Z" transform="translate(-169.25 -40.07)"/><path class="cls-2" d="M391.08,250.84,359.8,232.78l31.28-18.06.28.16,31,17.9ZM362,232.78l29.07,16.78,29.07-16.78L391.08,216Z" transform="translate(-169.25 -40.07)"/><path class="cls-2" d="M421.26,268.26l-.27-.16-31-17.9,31.28-18.06.28.16,31,17.9ZM392.19,250.2,421.26,267l29.07-16.78-29.07-16.78Z" transform="translate(-169.25 -40.07)"/><path class="cls-2" d="M451.44,285.69l-.28-.16-31-17.91,31.29-18.06,31.28,18.07Zm-29.07-18.07,29.07,16.79,29.07-16.78-29.07-16.79Z" transform="translate(-169.25 -40.07)"/><path class="cls-2" d="M481.62,303.11l-.28-.16-31-17.9L481.62,267l.27.16,31,17.9Zm-29.07-18.06,29.07,16.78,29.07-16.78-29.07-16.78Z" transform="translate(-169.25 -40.07)"/><path class="cls-2" d="M511.79,320.53l-31.28-18.06,31.28-18.06.28.16,31,17.9Zm-29.07-18.06,29.07,16.78,29.07-16.78-29.07-16.78Z" transform="translate(-169.25 -40.07)"/><path class="cls-2" d="M542,338l-.27-.16-31-17.91L542,301.83l.28.16,31,17.9ZM512.9,319.89,542,336.68,571,319.89,542,303.11Z" transform="translate(-169.25 -40.07)"/><path class="cls-2" d="M240.2,198.57l-31.29-18.06,31.29-18.06.27.16,31,17.9Zm-29.07-18.06,29.07,16.78,29.07-16.78L240.2,163.73Z" transform="translate(-169.25 -40.07)"/><path class="cls-2" d="M270.37,216l-.27-.16-31-17.9,31.28-18.06.28.16,31,17.9ZM241.3,197.93l29.07,16.79,29.07-16.79-29.07-16.78Z" transform="translate(-169.25 -40.07)"/><path class="cls-2" d="M300.55,233.42l-.27-.16-31-17.9,31.28-18.07.28.16,31,17.91Zm-29.07-18.06,29.07,16.78,29.07-16.78-29.07-16.79Z" transform="translate(-169.25 -40.07)"/><path class="cls-2" d="M330.73,250.84l-.28-.16-31-17.9,31.28-18.06L362,232.78Zm-29.07-18.06,29.07,16.78,29.07-16.78L330.73,216Z" transform="translate(-169.25 -40.07)"/><path class="cls-2" d="M360.91,268.26,329.62,250.2l31.29-18.06,31.28,18.06ZM331.84,250.2,360.91,267,390,250.2l-29.07-16.78Z" transform="translate(-169.25 -40.07)"/><path class="cls-2" d="M391.08,285.69,359.8,267.62l31.28-18.06.28.16,31,17.9ZM362,267.62l29.07,16.79,29.07-16.79-29.07-16.78Z" transform="translate(-169.25 -40.07)"/><path class="cls-2" d="M421.26,303.11,421,303l-31-17.9L421.26,267l.28.17,31,17.9Zm-29.07-18.06,29.07,16.78,29.07-16.78-29.07-16.79Z" transform="translate(-169.25 -40.07)"/><path class="cls-2" d="M451.44,320.53l-.28-.16-31-17.9,31.28-18.06.28.16,31,17.9Zm-29.07-18.06,29.07,16.78,29.07-16.78-29.07-16.78Z" transform="translate(-169.25 -40.07)"/><path class="cls-2" d="M481.62,338l-.28-.16-31-17.91,31.29-18.06,31.28,18.06Zm-29.07-18.07,29.07,16.79,29.07-16.79-29.07-16.78Z" transform="translate(-169.25 -40.07)"/><path class="cls-2" d="M240.2,233.42l-31.29-18.07,31.29-18.06.27.16,31,17.91Zm-29.07-18.07,29.07,16.79,29.07-16.78L240.2,198.57Z" transform="translate(-169.25 -40.07)"/><path class="cls-2" d="M270.38,250.84l-.28-.16-31-17.9,31.28-18.06.28.16,31,17.9Zm-29.07-18.06,29.07,16.78,29.07-16.78L270.37,216Z" transform="translate(-169.25 -40.07)"/><path class="cls-2" d="M300.55,268.26l-.27-.16-31-17.9,31.28-18.06.28.16,31,17.9ZM271.48,250.2,300.55,267l29.07-16.78-29.07-16.78Z" transform="translate(-169.25 -40.07)"/><path class="cls-2" d="M330.73,285.69l-31.28-18.07,31.28-18.06L362,267.62Zm-29.07-18.07,29.07,16.79,29.07-16.79-29.07-16.78Z" transform="translate(-169.25 -40.07)"/><path class="cls-2" d="M360.91,303.11l-.28-.16-31-17.9L360.91,267l31.28,18.07Zm-29.07-18.06,29.07,16.78L390,285.05l-29.07-16.79Z" transform="translate(-169.25 -40.07)"/><path class="cls-2" d="M391.09,320.53,359.8,302.47l31.28-18.06.28.16,31,17.9ZM362,302.47l29.07,16.78,29.07-16.78-29.08-16.78Z" transform="translate(-169.25 -40.07)"/><path class="cls-2" d="M421.26,338l-.27-.16-31-17.91,31.28-18.06.28.16,31,17.9Zm-29.07-18.07,29.07,16.79,29.07-16.79-29.07-16.78Z" transform="translate(-169.25 -40.07)"/><path class="cls-2" d="M240.2,268.26l-.28-.16-31-17.9,31.29-18.06.27.16,31,17.9ZM211.13,250.2,240.2,267l29.07-16.78L240.2,233.42Z" transform="translate(-169.25 -40.07)"/><path class="cls-2" d="M270.38,285.69l-31.29-18.07,31.29-18.06.27.16,31,17.9Zm-29.07-18.07,29.07,16.79,29.07-16.79-29.07-16.78Z" transform="translate(-169.25 -40.07)"/><path class="cls-2" d="M300.55,303.11l-.27-.16-31-17.9L300.55,267l31.29,18.07Zm-29.07-18.06,29.07,16.78,29.07-16.78-29.07-16.79Z" transform="translate(-169.25 -40.07)"/><path class="cls-2" d="M330.73,320.53l-31.28-18.06,31.28-18.06.28.16,31,17.9Zm-29.07-18.06,29.07,16.78,29.07-16.78-29.07-16.78Z" transform="translate(-169.25 -40.07)"/><path class="cls-2" d="M360.91,338l-.28-.16-31-17.9,31.29-18.06,31.28,18.06Zm-29.07-18.06,29.07,16.79L390,319.89l-29.07-16.78Z" transform="translate(-169.25 -40.07)"/><path class="cls-2" d="M240.2,303.11l-.28-.16-31-17.9L240.2,267l31.28,18.07Zm-29.07-18.06,29.07,16.78,29.07-16.78L240.2,268.26Z" transform="translate(-169.25 -40.07)"/><path class="cls-2" d="M270.38,320.53l-.28-.16-31-17.9,31.29-18.06.27.16,31,17.9Zm-29.07-18.06,29.07,16.78,29.07-16.78-29.07-16.78Z" transform="translate(-169.25 -40.07)"/><path class="cls-2" d="M300.55,338l-31.28-18.06,31.28-18.06,31.29,18.06Zm-29.06-18.06,29.06,16.79,29.07-16.79-29.07-16.78Z" transform="translate(-169.25 -40.07)"/><path class="cls-2" d="M240.2,338l-.28-.16-31-17.9,31.28-18.06.28.16,31,17.9Zm-29.07-18.06,29.07,16.78,29.07-16.78L240.2,303.11Z" transform="translate(-169.25 -40.07)"/></g><path class="cls-2" d="M209.21,244.55a10.45,10.45,0,0,0-1.7,1.25c-.24-7.67-5.78-10.72-12.6-6.79-5.55,3.21-10.26,10.08-11.95,16.8a7.62,7.62,0,0,0-4.71,1.17c-5,2.88-9,9.86-9,15.6s4,8.06,9,5.19l31-17.87a14.69,14.69,0,0,0,6.65-11.51C215.86,244.15,212.88,242.43,209.21,244.55Z" transform="translate(-169.25 -40.07)"/><path class="cls-2" d="M449.39,291.55a6.43,6.43,0,0,1-2.92,5.06c-1.61.93-2.92.18-2.92-1.68a6.45,6.45,0,0,1,2.92-5.06C448.09,288.94,449.39,289.69,449.39,291.55Z" transform="translate(-169.25 -40.07)"/><path class="cls-2" d="M458.85,286.09a6.46,6.46,0,0,1-2.91,5.06c-1.62.93-2.92.17-2.92-1.69a6.42,6.42,0,0,1,2.92-5C457.55,283.48,458.85,284.23,458.85,286.09Z" transform="translate(-169.25 -40.07)"/><path class="cls-2" d="M468.32,280.63a6.45,6.45,0,0,1-2.92,5.05c-1.61.94-2.92.18-2.92-1.68a6.47,6.47,0,0,1,2.92-5.06C467,278,468.32,278.77,468.32,280.63Z" transform="translate(-169.25 -40.07)"/><path class="cls-2" d="M477.78,275.17a6.45,6.45,0,0,1-2.92,5.05c-1.61.93-2.92.18-2.92-1.68a6.47,6.47,0,0,1,2.92-5.06C476.47,272.55,477.78,273.3,477.78,275.17Z" transform="translate(-169.25 -40.07)"/><path class="cls-2" d="M313.12,343.73a6.47,6.47,0,0,1-2.92,5.06c-1.62.93-2.92.18-2.92-1.69a6.42,6.42,0,0,1,2.92-5.05C311.81,341.12,313.12,341.87,313.12,343.73Z" transform="translate(-169.25 -40.07)"/><path class="cls-2" d="M321.17,339.08a6.45,6.45,0,0,1-2.92,5.06c-1.61.93-2.92.18-2.92-1.69a6.45,6.45,0,0,1,2.92-5.05C319.86,336.47,321.17,337.22,321.17,339.08Z" transform="translate(-169.25 -40.07)"/><path class="cls-2" d="M313.12,334.44a6.45,6.45,0,0,1-2.92,5.05c-1.62.93-2.92.18-2.92-1.68a6.43,6.43,0,0,1,2.92-5.06C311.81,331.82,313.12,332.57,313.12,334.44Z" transform="translate(-169.25 -40.07)"/><path class="cls-2" d="M321.17,329.79a6.45,6.45,0,0,1-2.92,5c-1.61.93-2.92.18-2.92-1.68a6.47,6.47,0,0,1,2.92-5.06C319.86,327.17,321.17,327.92,321.17,329.79Z" transform="translate(-169.25 -40.07)"/><polygon class="cls-2" points="116.82 70.66 110.98 74.03 110.98 67.29 116.82 63.92 116.82 70.66"/><polygon class="cls-2" points="124.92 65.92 119.08 69.29 119.08 62.55 124.92 59.18 124.92 65.92"/><polygon class="cls-2" points="116.87 79.4 111.03 82.77 111.03 76.03 116.87 72.66 116.87 79.4"/><polygon class="cls-2" points="124.92 74.75 119.08 78.13 119.08 71.38 124.92 68.01 124.92 74.75"/><path class="cls-3" d="M524.24,43.87a11.27,11.27,0,0,0-2.86,2.45c-.13-5.62-4.16-7.87-9.13-5a16.56,16.56,0,0,0-4.39,3.83c-2.22-3.86-6.8-4.76-12.11-1.7-7.47,4.31-13.52,14.8-13.52,23.42a16.15,16.15,0,0,0,.14,2,5.07,5.07,0,0,0-3.79.76,14.31,14.31,0,0,0-6.47,11.21c0,4.12,2.9,5.79,6.47,3.73l45.66-26.36a13.75,13.75,0,0,0,6.22-10.77C530.46,43.49,527.67,41.89,524.24,43.87Z" transform="translate(-169.25 -40.07)"/><path class="cls-4" d="M532.37,51a10.88,10.88,0,0,0-2.85,2.45c-.13-5.62-4.17-7.87-9.14-5A16.72,16.72,0,0,0,516,52.32c-2.21-3.87-6.79-4.76-12.1-1.7-7.47,4.31-13.52,14.8-13.52,23.42a16.2,16.2,0,0,0,.13,2,5,5,0,0,0-3.78.76A14.28,14.28,0,0,0,480.25,88c0,4.12,2.89,5.79,6.47,3.73L532.37,65.4a13.72,13.72,0,0,0,6.22-10.77C538.59,50.66,535.81,49.06,532.37,51Z" transform="translate(-169.25 -40.07)"/><path class="cls-2" d="M540.51,58.21a11.08,11.08,0,0,0-2.86,2.45c-.13-5.62-4.16-7.87-9.13-5a16.56,16.56,0,0,0-4.39,3.83c-2.21-3.87-6.8-4.76-12.11-1.7-7.46,4.31-13.52,14.8-13.52,23.42a16,16,0,0,0,.14,2,5.13,5.13,0,0,0-3.79.77,14.3,14.3,0,0,0-6.47,11.2c0,4.13,2.9,5.8,6.47,3.74l45.66-26.36a13.76,13.76,0,0,0,6.22-10.77C546.73,57.83,543.94,56.22,540.51,58.21Z" transform="translate(-169.25 -40.07)"/><path class="cls-2" d="M275.37,259.56a1.4,1.4,0,0,1-.71-.19,1.42,1.42,0,0,1-.7-1.22V240.06a1.42,1.42,0,0,1,.7-1.22l15.67-9.05a1.42,1.42,0,0,1,2.12,1.23V249.1a1.42,1.42,0,0,1-.71,1.23l-15.66,9A1.4,1.4,0,0,1,275.37,259.56Zm1.41-18.68V255.7l12.84-7.41V233.46ZM291,249.1h0Z" transform="translate(-169.25 -40.07)"/><polygon class="cls-5" points="95.36 307.78 72.77 294.73 95.36 281.69 117.95 294.73 95.36 307.78"/><path class="cls-2" d="M264.61,339.77a1.79,1.79,0,0,1-.86-.23l-22.59-13a1.72,1.72,0,0,1,0-3l22.59-13a1.76,1.76,0,0,1,1.72,0l22.59,13a1.72,1.72,0,0,1,0,3l-22.59,13A1.73,1.73,0,0,1,264.61,339.77ZM245.46,325l19.15,11.06L283.77,325,264.61,314Z" transform="translate(-169.25 -40.07)"/><polygon class="cls-6" points="117.95 274.75 95.36 287.79 95.36 261.71 117.95 248.66 117.95 274.75"/><polygon class="cls-7" points="95.36 261.71 72.77 248.66 95.36 235.62 117.95 248.66 95.36 261.71"/><polygon class="cls-8" points="95.36 287.79 72.77 274.75 72.77 248.66 95.36 261.71 95.36 287.79"/><polygon class="cls-2" points="87.23 273.7 80.91 270.05 80.91 262.76 87.23 266.4 87.23 273.7"/><polygon class="cls-5" points="348.3 167.28 325.71 154.24 348.3 141.19 370.89 154.24 348.3 167.28"/><path class="cls-2" d="M517.55,199.27a1.62,1.62,0,0,1-.85-.23l-22.59-13a1.71,1.71,0,0,1,0-3l22.59-13a1.69,1.69,0,0,1,1.71,0L541,183a1.71,1.71,0,0,1,0,3l-22.59,13A1.63,1.63,0,0,1,517.55,199.27ZM498.4,184.52l19.15,11,19.16-11-19.16-11.06Z" transform="translate(-169.25 -40.07)"/><polygon class="cls-9" points="370.89 134.25 348.3 147.29 348.3 121.21 370.89 108.17 370.89 134.25"/><polygon class="cls-10" points="348.3 121.21 325.71 108.17 348.3 95.13 370.89 108.17 348.3 121.21"/><polygon class="cls-11" points="348.3 147.29 325.71 134.25 325.71 108.17 348.3 121.21 348.3 147.29"/><polygon class="cls-2" points="340.17 133.2 333.85 129.56 333.85 122.26 340.17 125.91 340.17 133.2"/><polygon class="cls-2" points="341.99 108.24 348.26 104.52 354.62 108.09 348.35 111.82 341.99 108.24"/><polygon class="cls-5" points="348.3 307.78 325.71 294.73 348.3 281.69 370.89 294.73 348.3 307.78"/><path class="cls-2" d="M517.55,339.77a1.72,1.72,0,0,1-.85-.23l-22.59-13a1.72,1.72,0,0,1,0-3l22.59-13a1.74,1.74,0,0,1,1.71,0l22.59,13a1.72,1.72,0,0,1,0,3l-22.59,13A1.73,1.73,0,0,1,517.55,339.77ZM498.4,325l19.15,11.06L536.71,325,517.55,314Z" transform="translate(-169.25 -40.07)"/><polygon class="cls-12" points="370.89 274.75 348.3 287.79 348.3 261.71 370.89 248.66 370.89 274.75"/><polygon class="cls-13" points="348.3 261.71 325.71 248.66 348.3 235.62 370.89 248.66 348.3 261.71"/><polygon class="cls-14" points="348.3 287.79 325.71 274.75 325.71 248.66 348.3 261.71 348.3 287.79"/><polygon class="cls-2" points="340.17 273.7 333.85 270.05 333.85 262.76 340.17 266.4 340.17 273.7"/><polygon class="cls-5" points="95.36 167.28 72.77 154.24 95.36 141.19 117.95 154.24 95.36 167.28"/><path class="cls-2" d="M264.61,199.27a1.68,1.68,0,0,1-.86-.23l-22.59-13a1.71,1.71,0,0,1,0-3l22.59-13a1.71,1.71,0,0,1,1.72,0l22.59,13a1.71,1.71,0,0,1,0,3l-22.59,13A1.63,1.63,0,0,1,264.61,199.27Zm-19.15-14.75,19.15,11,19.16-11-19.16-11.06Z" transform="translate(-169.25 -40.07)"/><polygon class="cls-15" points="117.95 134.25 95.36 147.29 95.36 121.21 117.95 108.17 117.95 134.25"/><polygon class="cls-16" points="95.36 121.21 72.77 108.17 95.36 95.13 117.95 108.17 95.36 121.21"/><polygon class="cls-17" points="95.36 147.29 72.77 134.25 72.77 108.17 95.36 121.21 95.36 147.29"/><polygon class="cls-2" points="87.23 133.2 80.91 129.56 80.91 122.26 87.23 125.91 87.23 133.2"/><rect class="cls-2" x="435.16" y="185.41" width="75.86" height="3.43" transform="translate(-199.44 221.47) rotate(-29.99)"/><path class="cls-5" d="M385.75,299.48,327.82,266c-2.13-1.23-1.86-3.37.59-4.79l61.41-35.54c2.45-1.42,6.16-1.57,8.28-.34L456,258.8c2.12,1.23,1.85,3.37-.6,4.79L394,299.13C391.58,300.55,387.88,300.7,385.75,299.48Z" transform="translate(-169.25 -40.07)"/><path class="cls-2" d="M389.36,288.48a9.11,9.11,0,0,1-4.47-1L327,254a4.17,4.17,0,0,1-2.29-3.57,5.06,5.06,0,0,1,2.88-4.19L389,210.69c3-1.72,7.36-1.87,10-.35l57.94,33.45a4.17,4.17,0,0,1,2.29,3.56,5.05,5.05,0,0,1-2.89,4.2l-61.4,35.54A11.36,11.36,0,0,1,389.36,288.48Zm-2.75-4c1.59.92,4.66.76,6.57-.34l61.4-35.55c.86-.49,1.17-1,1.17-1.22s-.18-.36-.57-.59l-57.94-33.44c-1.59-.92-4.66-.76-6.56.34L329.27,249.2c-.86.5-1.17,1-1.17,1.22s.18.36.58.59Z" transform="translate(-169.25 -40.07)"/><path class="cls-18" d="M389.93,123.41s-31.8,3-51,4.5l50.81,144.71L457,233.86l0,0,.12-.07h0a3.73,3.73,0,0,0,1.37-3.31V89a10.21,10.21,0,0,0-1.16-4.51Z" transform="translate(-169.25 -40.07)"/><path class="cls-19" d="M454.35,81.05l-59.1-34.13a2.7,2.7,0,0,0-2.7-.23h0L325.07,85.62l3.18,11.77,16.92,48.18,3.19,1.84,109-62.92A8.32,8.32,0,0,0,454.35,81.05Z" transform="translate(-169.25 -40.07)"/><path class="cls-20" d="M386.92,272.49l-59.11-34.12c-2.3-1.33-4.16-4.89-4.16-8V89c0-3.07,1.86-4.48,4.16-3.15L386.92,120c2.3,1.32,4.16,4.89,4.16,8V269.35C391.08,272.41,389.22,273.82,386.92,272.49Z" transform="translate(-169.25 -40.07)"/><path class="cls-2" d="M388.19,119.24,329.08,85.11a2.46,2.46,0,0,0-3.27.24,3.08,3.08,0,0,1,2,.47L386.92,120c2.3,1.32,4.16,4.89,4.16,8V269.35a4.33,4.33,0,0,1-.88,2.9c1.28-.2,2.15-1.52,2.15-3.62V127.19C392.35,124.12,390.49,120.56,388.19,119.24Z" transform="translate(-169.25 -40.07)"/><path class="cls-21" d="M383.2,264l-51.67-29.84c-2-1.16-3.64-4.27-3.64-6.95V95.83c0-2.68,1.63-3.91,3.64-2.75l51.67,29.83c2,1.16,3.64,4.27,3.64,7V261.23C386.84,263.91,385.21,265.14,383.2,264Z" transform="translate(-169.25 -40.07)"/><path class="cls-21" d="M383.2,264l-51.67-29.84c-2-1.16-3.64-4.27-3.64-6.95V95.83c0-2.68,1.63-3.91,3.64-2.75l51.67,29.83c2,1.16,3.64,4.27,3.64,7V261.23C386.84,263.91,385.21,265.14,383.2,264Z" transform="translate(-169.25 -40.07)"/><path class="cls-22" d="M383.2,264l-51.67-29.84c-2-1.16-3.64-4.27-3.64-6.95V95.83c0-2.68,1.63-3.91,3.64-2.75l51.67,29.83c2,1.16,3.64,4.27,3.64,7V261.23C386.84,263.91,385.21,265.14,383.2,264Z" transform="translate(-169.25 -40.07)"/><path class="cls-23" d="M384.89,263l-51.67-29.83c-2-1.16-3.64-4.27-3.64-7V94.84a4.21,4.21,0,0,1,.52-2.2c-1.3,0-2.21,1.19-2.21,3.19V227.19c0,2.68,1.63,5.79,3.64,6.95L383.2,264c1.33.76,2.48.48,3.12-.56A2.84,2.84,0,0,1,384.89,263Z" transform="translate(-169.25 -40.07)"/><path class="cls-22" d="M383.2,203.67,364,192.58l-30.63,17.68,53.47,30.88V210.62C386.84,207.94,385.21,204.83,383.2,203.67Z" transform="translate(-169.25 -40.07)"/><path class="cls-22" d="M383.2,176.75,364,165.66l-30.63,17.68,53.47,30.88V183.7C386.84,181,385.21,177.91,383.2,176.75Z" transform="translate(-169.25 -40.07)"/><path class="cls-22" d="M383.2,149.83,364,138.74l-30.63,17.69,53.47,30.87V156.78C386.84,154.1,385.21,151,383.2,149.83Z" transform="translate(-169.25 -40.07)"/><path class="cls-22" d="M383.2,122.91,364,111.82l-30.63,17.69,53.47,30.87V129.86C386.84,127.18,385.21,124.07,383.2,122.91Z" transform="translate(-169.25 -40.07)"/><path class="cls-22" d="M383.2,122.91,340.69,98.36l-7.32,4.23,53.47,30.87v-3.6C386.84,127.18,385.21,124.07,383.2,122.91Z" transform="translate(-169.25 -40.07)"/><polygon class="cls-20" points="217.59 93.39 164.12 62.52 164.12 79.53 217.59 110.41 217.59 93.39"/><polygon class="cls-20" points="217.59 120.31 164.12 89.44 164.12 106.45 217.59 137.32 217.59 120.31"/><polygon class="cls-20" points="217.59 147.23 164.12 116.35 164.12 133.37 217.59 164.24 217.59 147.23"/><polygon class="cls-20" points="217.59 174.15 164.12 143.27 164.12 160.29 217.59 191.16 217.59 174.15"/><polygon class="cls-20" points="217.59 201.06 164.12 170.19 164.12 187.2 217.59 218.08 217.59 201.06"/><path class="cls-22" d="M382.13,144.41l-40.28-23.25a4.93,4.93,0,0,1-2.06-3.93v-4.56c0-1.52.92-2.21,2.06-1.56l40.28,23.26a4.92,4.92,0,0,1,2.05,3.93v4.56C384.18,144.37,383.26,145.07,382.13,144.41Z" transform="translate(-169.25 -40.07)"/><path class="cls-24" d="M343.88,120.29a5,5,0,0,1-2.06-3.94V111.8a3.22,3.22,0,0,1,.08-.66l0,0c-1.14-.65-2.06,0-2.06,1.56v4.56a4.93,4.93,0,0,0,2.06,3.93l40.28,23.25a1.23,1.23,0,0,0,2-.9Z" transform="translate(-169.25 -40.07)"/><path class="cls-2" d="M369.49,131.93l-24.24-14a1.74,1.74,0,0,1-.73-1.38h0c0-.54.33-.78.73-.55l24.24,14a1.73,1.73,0,0,1,.72,1.39h0C370.21,131.91,369.89,132.16,369.49,131.93Z" transform="translate(-169.25 -40.07)"/><path class="cls-22" d="M382.13,171.17l-40.28-23.26a4.93,4.93,0,0,1-2.06-3.93v-4.56c0-1.52.92-2.21,2.06-1.56l40.28,23.26a5,5,0,0,1,2.05,3.93v4.56C384.18,171.13,383.26,171.82,382.13,171.17Z" transform="translate(-169.25 -40.07)"/><path class="cls-24" d="M343.88,147a5,5,0,0,1-2.06-3.94v-4.55a3.31,3.31,0,0,1,.08-.66l0,0c-1.14-.65-2.06,0-2.06,1.56V144a4.93,4.93,0,0,0,2.06,3.93l40.28,23.26a1.23,1.23,0,0,0,2-.91Z" transform="translate(-169.25 -40.07)"/><path class="cls-2" d="M369.49,158.68l-24.24-14a1.74,1.74,0,0,1-.73-1.38h0c0-.53.33-.78.73-.55l24.24,14a1.73,1.73,0,0,1,.72,1.38h0C370.21,158.66,369.89,158.91,369.49,158.68Z" transform="translate(-169.25 -40.07)"/><path class="cls-22" d="M382.13,198.17l-40.28-23.26a4.92,4.92,0,0,1-2.06-3.93v-4.56c0-1.51.92-2.21,2.06-1.55l40.28,23.25a5,5,0,0,1,2.05,3.93v4.56C384.18,198.13,383.26,198.82,382.13,198.17Z" transform="translate(-169.25 -40.07)"/><path class="cls-24" d="M343.88,174a5,5,0,0,1-2.06-3.93v-4.56a3.12,3.12,0,0,1,.08-.65l0,0c-1.14-.66-2.06,0-2.06,1.55V171a4.92,4.92,0,0,0,2.06,3.93l40.28,23.26a1.23,1.23,0,0,0,2-.91Z" transform="translate(-169.25 -40.07)"/><path class="cls-25" d="M369.49,185.68l-24.24-14a1.77,1.77,0,0,1-.73-1.39h0c0-.53.33-.78.73-.55l24.24,14a1.73,1.73,0,0,1,.72,1.38h0C370.21,185.66,369.89,185.91,369.49,185.68Z" transform="translate(-169.25 -40.07)"/><path class="cls-22" d="M382.13,225.42l-40.28-23.26a4.9,4.9,0,0,1-2.06-3.93v-4.56c0-1.51.92-2.21,2.06-1.55l40.28,23.25a5,5,0,0,1,2.05,3.93v4.56C384.18,225.38,383.26,226.07,382.13,225.42Z" transform="translate(-169.25 -40.07)"/><path class="cls-24" d="M343.88,201.29a5,5,0,0,1-2.06-3.93V192.8a3.12,3.12,0,0,1,.08-.65l0,0c-1.14-.66-2.06,0-2.06,1.55v4.56a4.9,4.9,0,0,0,2.06,3.93l40.28,23.26a1.23,1.23,0,0,0,2-.9Z" transform="translate(-169.25 -40.07)"/><path class="cls-26" d="M369.49,212.93l-24.24-14a1.75,1.75,0,0,1-.73-1.39h0c0-.53.33-.78.73-.55l24.24,14a1.73,1.73,0,0,1,.72,1.38h0C370.21,212.92,369.89,213.16,369.49,212.93Z" transform="translate(-169.25 -40.07)"/><path class="cls-22" d="M382.13,252.13l-40.28-23.26a4.9,4.9,0,0,1-2.06-3.93v-4.56c0-1.51.92-2.21,2.06-1.55l40.28,23.25a5,5,0,0,1,2.05,3.94v4.55C384.18,252.09,383.26,252.78,382.13,252.13Z" transform="translate(-169.25 -40.07)"/><path class="cls-24" d="M343.88,228a5,5,0,0,1-2.06-3.93v-4.56a3.21,3.21,0,0,1,.08-.65l0,0c-1.14-.66-2.06,0-2.06,1.55v4.56a4.9,4.9,0,0,0,2.06,3.93l40.28,23.26a1.23,1.23,0,0,0,2-.9Z" transform="translate(-169.25 -40.07)"/><path class="cls-25" d="M369.49,239.64l-24.24-14a1.74,1.74,0,0,1-.73-1.39h0c0-.53.33-.78.73-.55l24.24,14a1.73,1.73,0,0,1,.72,1.38h0C370.21,239.63,369.89,239.87,369.49,239.64Z" transform="translate(-169.25 -40.07)"/><polygon class="cls-27" points="164.12 62.52 168.33 64.95 168.33 81.96 164.12 79.53 164.12 62.52"/><polygon class="cls-27" points="164.12 89.44 168.33 91.87 168.33 108.88 164.12 106.45 164.12 89.44"/><polygon class="cls-27" points="164.12 116.35 168.33 118.78 168.33 135.8 164.12 133.37 164.12 116.35"/><polygon class="cls-27" points="164.12 143.27 168.33 145.7 168.33 162.72 164.12 160.29 164.12 143.27"/><polygon class="cls-27" points="164.12 170.19 168.33 172.62 168.33 189.63 164.12 187.2 164.12 170.19"/><ellipse class="cls-25" cx="373.41" cy="133.11" rx="0.7" ry="1.21" transform="matrix(0.87, -0.5, 0.5, 0.87, -185.77, 164.5)"/><path class="cls-26" d="M377.88,135.69c0,.55-.39.77-.86.49a1.87,1.87,0,0,1-.85-1.47c0-.55.38-.77.85-.49A1.89,1.89,0,0,1,377.88,135.69Z" transform="translate(-169.25 -40.07)"/><path class="cls-25" d="M381.49,137.78c0,.54-.38.76-.85.49a1.88,1.88,0,0,1-.85-1.48c0-.54.38-.76.85-.49A1.89,1.89,0,0,1,381.49,137.78Z" transform="translate(-169.25 -40.07)"/><path class="cls-26" d="M374.26,160.51c0,.54-.38.76-.85.49a1.87,1.87,0,0,1-.85-1.47c0-.55.38-.77.85-.5A1.91,1.91,0,0,1,374.26,160.51Z" transform="translate(-169.25 -40.07)"/><path class="cls-25" d="M377.88,162.6c0,.54-.39.76-.86.49a1.88,1.88,0,0,1-.85-1.48c0-.54.38-.76.85-.49A1.89,1.89,0,0,1,377.88,162.6Z" transform="translate(-169.25 -40.07)"/><path class="cls-2" d="M381.49,164.68c0,.55-.38.77-.85.5a1.91,1.91,0,0,1-.85-1.48c0-.54.38-.76.85-.49A1.87,1.87,0,0,1,381.49,164.68Z" transform="translate(-169.25 -40.07)"/><path class="cls-2" d="M374.26,187.62c0,.54-.38.76-.85.49a1.88,1.88,0,0,1-.85-1.48c0-.54.38-.76.85-.49A1.88,1.88,0,0,1,374.26,187.62Z" transform="translate(-169.25 -40.07)"/><path class="cls-26" d="M377.88,189.7c0,.55-.39.77-.86.5a1.89,1.89,0,0,1-.85-1.48c0-.54.38-.76.85-.49A1.89,1.89,0,0,1,377.88,189.7Z" transform="translate(-169.25 -40.07)"/><path class="cls-2" d="M381.49,191.79c0,.55-.38.77-.85.49a1.87,1.87,0,0,1-.85-1.47c0-.55.38-.77.85-.5A1.91,1.91,0,0,1,381.49,191.79Z" transform="translate(-169.25 -40.07)"/><path class="cls-2" d="M374.26,214.33c0,.54-.38.76-.85.49a1.87,1.87,0,0,1-.85-1.47c0-.55.38-.77.85-.5A1.91,1.91,0,0,1,374.26,214.33Z" transform="translate(-169.25 -40.07)"/><path class="cls-25" d="M377.88,216.42c0,.54-.39.76-.86.49a1.88,1.88,0,0,1-.85-1.48c0-.54.38-.76.85-.49A1.89,1.89,0,0,1,377.88,216.42Z" transform="translate(-169.25 -40.07)"/><path class="cls-25" d="M381.49,218.5c0,.55-.38.77-.85.5a1.91,1.91,0,0,1-.85-1.48c0-.54.38-.76.85-.49A1.87,1.87,0,0,1,381.49,218.5Z" transform="translate(-169.25 -40.07)"/><path class="cls-2" d="M374.26,241.41c0,.54-.38.76-.85.49a1.88,1.88,0,0,1-.85-1.48c0-.54.38-.76.85-.49A1.88,1.88,0,0,1,374.26,241.41Z" transform="translate(-169.25 -40.07)"/><path class="cls-26" d="M377.88,243.5c0,.54-.39.76-.86.49a1.89,1.89,0,0,1-.85-1.48c0-.54.38-.76.85-.49A1.89,1.89,0,0,1,377.88,243.5Z" transform="translate(-169.25 -40.07)"/><path class="cls-25" d="M381.49,245.58c0,.55-.38.77-.85.49a1.87,1.87,0,0,1-.85-1.47c0-.55.38-.77.85-.49A1.87,1.87,0,0,1,381.49,245.58Z" transform="translate(-169.25 -40.07)"/><path class="cls-22" d="M400,253.37V132.93l.25-.14,50.33-29.07V224.17l-.25.14Zm1-119.86V251.65l48.59-28.06V105.45Z" transform="translate(-169.25 -40.07)"/><path class="cls-22" d="M437.5,157.92l-22.57,13c-1.52.87-2.75-.06-2.75-2.08V156.36a6.59,6.59,0,0,1,2.75-5.25l22.57-13c1.51-.87,2.74.06,2.74,2.08v12.51A6.61,6.61,0,0,1,437.5,157.92Z" transform="translate(-169.25 -40.07)"/><path class="cls-20" d="M438,137.84a3.59,3.59,0,0,1,.21,1.25v12.52a6.55,6.55,0,0,1-2.75,5.24l-22.57,13a2.94,2.94,0,0,1-.55.25,1.61,1.61,0,0,0,2.55.82l22.57-13a6.61,6.61,0,0,0,2.74-5.25V140.16C440.24,138.39,439.3,137.45,438,137.84Z" transform="translate(-169.25 -40.07)"/><path class="cls-2" d="M433.37,150.38c.42-.24.76,0,.76.44v2.85a1.65,1.65,0,0,1-.76,1.3c-.41.25-.75.05-.75-.43v-2.85A1.69,1.69,0,0,1,433.37,150.38Z" transform="translate(-169.25 -40.07)"/><path class="cls-25" d="M430.14,152.61c.41-.25.75-.05.75.43v2.5a1.67,1.67,0,0,1-.75,1.3c-.42.24-.76,0-.76-.43v-2.5A1.65,1.65,0,0,1,430.14,152.61Z" transform="translate(-169.25 -40.07)"/><path class="cls-26" d="M426.9,151.69c.41-.24.75,0,.75.44v5.27a1.67,1.67,0,0,1-.75,1.31c-.42.24-.76,0-.76-.43V153A1.67,1.67,0,0,1,426.9,151.69Z" transform="translate(-169.25 -40.07)"/><path class="cls-25" d="M423.66,150.52c.42-.24.76-.05.76.44v8.31a1.66,1.66,0,0,1-.76,1.31c-.42.24-.76,0-.76-.43v-8.32A1.67,1.67,0,0,1,423.66,150.52Z" transform="translate(-169.25 -40.07)"/><path class="cls-25" d="M420.42,153.26c.42-.24.76,0,.76.44v7.44a1.66,1.66,0,0,1-.76,1.31c-.42.24-.75.05-.75-.43v-7.45A1.66,1.66,0,0,1,420.42,153.26Z" transform="translate(-169.25 -40.07)"/><path class="cls-2" d="M417.18,158.53c.42-.24.76,0,.76.44v4a1.67,1.67,0,0,1-.76,1.31c-.41.24-.75.05-.75-.43v-4A1.69,1.69,0,0,1,417.18,158.53Z" transform="translate(-169.25 -40.07)"/><path class="cls-26" d="M432.63,148.94c0,.47.33.67.74.43a1.65,1.65,0,0,0,.75-1.29c0-.47-.34-.66-.75-.43A1.66,1.66,0,0,0,432.63,148.94Z" transform="translate(-169.25 -40.07)"/><ellipse class="cls-2" cx="433.37" cy="145.83" rx="1.05" ry="0.61" transform="translate(-78.87 408.14) rotate(-60)"/><rect class="cls-2" x="346.59" y="41.54" width="3.44" height="66.63"/><path class="cls-5" d="M387.25,360.58l-34.52-19.92c-2.11-1.23-1.85-3.36.6-4.78l33.32-19.23c2.45-1.42,6.15-1.57,8.27-.35l34.51,19.93c2.12,1.22,1.85,3.36-.6,4.77l-33.32,19.24C393.06,361.65,389.36,361.8,387.25,360.58Z" transform="translate(-169.25 -40.07)"/><path class="cls-2" d="M390.85,352.47a9.21,9.21,0,0,1-4.58-1.1h0l-34.52-19.92a4.4,4.4,0,0,1-2.41-3.77,5.29,5.29,0,0,1,3-4.4L385.67,304c3.08-1.78,7.48-1.93,10.22-.34l34.52,19.93a4.38,4.38,0,0,1,2.41,3.77,5.28,5.28,0,0,1-3,4.39L396.49,351A11.43,11.43,0,0,1,390.85,352.47ZM388.23,348c1.52.88,4.46.72,6.3-.34l33.32-19.24c.84-.49,1-.92,1-1a1.4,1.4,0,0,0-.45-.37L393.93,307.1c-1.52-.88-4.46-.72-6.3.34l-33.32,19.24c-.84.48-1,.92-1.05,1a1.4,1.4,0,0,0,.45.37L388.23,348Z" transform="translate(-169.25 -40.07)"/><path class="cls-23" d="M430.85,315.19h0V303.28l-26.71,0-9.22-5.33c-2.12-1.22-5.82-1.07-8.27.35l-8.61,5-26.73,0v12.25a2.4,2.4,0,0,0,1.42,2.21l34.52,19.93c2.11,1.22,5.81,1.07,8.26-.34L428.83,318C430.24,317.22,430.93,316.17,430.85,315.19Z" transform="translate(-169.25 -40.07)"/><path class="cls-28" d="M391.08,297.11a9.49,9.49,0,0,0-4.43,1.17l-8.61,5-26.73,0v12.25a2.4,2.4,0,0,0,1.42,2.21l34.52,19.93a7.48,7.48,0,0,0,3.83.82Z" transform="translate(-169.25 -40.07)"/><path class="cls-25" d="M354.34,303.23h-3v12.25a2.4,2.4,0,0,0,1.42,2.21l1.61.93Z" transform="translate(-169.25 -40.07)"/><path class="cls-20" d="M387.78,337.88a9.39,9.39,0,0,0,6.6-.08V323.9h-6.6Z" transform="translate(-169.25 -40.07)"/><path class="cls-29" d="M387.25,325.42l-34.52-19.93c-2.11-1.22-1.85-3.36.6-4.77l33.32-19.24c2.45-1.41,6.15-1.56,8.27-.34l34.51,19.92c2.12,1.23,1.85,3.36-.6,4.77l-33.32,19.24C393.06,326.49,389.36,326.64,387.25,325.42Z" transform="translate(-169.25 -40.07)"/><path class="cls-2" d="M428.83,303.49l-33.32,19.24c-2.45,1.41-6.15,1.57-8.26.34l-34.52-19.92a3,3,0,0,1-1.05-.94c-.73,1.17-.4,2.44,1.05,3.28l34.52,19.93c2.11,1.22,5.81,1.07,8.26-.35l33.32-19.24c1.9-1.09,2.48-2.63,1.65-3.83A4.5,4.5,0,0,1,428.83,303.49Z" transform="translate(-169.25 -40.07)"/><path class="cls-25" d="M418.15,318.33a3.06,3.06,0,0,1-1.39,2.41c-.77.45-1.4.09-1.4-.8a3.1,3.1,0,0,1,1.4-2.42C417.53,317.08,418.15,317.44,418.15,318.33Z" transform="translate(-169.25 -40.07)"/><path class="cls-25" d="M422.64,315.74a3.07,3.07,0,0,1-1.4,2.41c-.77.45-1.39.09-1.39-.8a3.09,3.09,0,0,1,1.39-2.42C422,314.49,422.64,314.85,422.64,315.74Z" transform="translate(-169.25 -40.07)"/><path class="cls-25" d="M427.12,313.15a3.06,3.06,0,0,1-1.39,2.41c-.77.45-1.4.09-1.4-.8a3.1,3.1,0,0,1,1.4-2.42C426.5,311.9,427.12,312.26,427.12,313.15Z" transform="translate(-169.25 -40.07)"/><path class="cls-20" d="M389.29,313.06l-16.15-9.32c-1-.57-.87-1.57.27-2.23l15.6-9a4.31,4.31,0,0,1,3.87-.16L409,301.67c1,.57.86,1.57-.28,2.23l-15.6,9A4.26,4.26,0,0,1,389.29,313.06Z" transform="translate(-169.25 -40.07)"/><path class="cls-25" d="M390.83,305.26,388.6,304c-.14-.08-.12-.22,0-.31l2.15-1.25a.61.61,0,0,1,.54,0l2.23,1.29c.14.08.12.22,0,.31l-2.16,1.24A.58.58,0,0,1,390.83,305.26Z" transform="translate(-169.25 -40.07)"/><path class="cls-23" d="M373.14,303.74l0,0,.23-.16,15.6-9a4.31,4.31,0,0,1,3.87-.16l16.1,9.3c.91-.65,1-1.54,0-2.07l-16.15-9.33a4.31,4.31,0,0,0-3.87.16l-15.6,9C372.27,302.17,372.15,303.17,373.14,303.74Z" transform="translate(-169.25 -40.07)"/><path class="cls-5" d="M513.72,272.66l-34.51-19.92c-2.12-1.22-1.85-3.36.59-4.77l33.33-19.24c2.44-1.41,6.14-1.57,8.26-.35l34.51,19.93c2.12,1.22,1.85,3.36-.59,4.77L522,272.32C519.54,273.73,515.84,273.89,513.72,272.66Z" transform="translate(-169.25 -40.07)"/><path class="cls-2" d="M517.33,264.55a9.33,9.33,0,0,1-4.59-1.09h0l-34.51-19.93a4.4,4.4,0,0,1-2.41-3.77,5.26,5.26,0,0,1,3-4.39l33.33-19.24c3.08-1.79,7.47-1.93,10.22-.35l34.51,19.93a4.4,4.4,0,0,1,2.41,3.77,5.26,5.26,0,0,1-3,4.39L523,263.11A11.4,11.4,0,0,1,517.33,264.55Zm-2.63-4.49c1.52.88,4.47.72,6.3-.34l33.33-19.24c.83-.48,1-.92,1-1a1.13,1.13,0,0,0-.45-.38l-34.51-19.92c-1.52-.88-4.47-.72-6.3.34l-33.33,19.24c-.84.48-1,.92-1,1a1.13,1.13,0,0,0,.45.38l34.51,19.92Z" transform="translate(-169.25 -40.07)"/><path class="cls-23" d="M557.32,227.27h0V215.36h-26.7L521.39,210c-2.12-1.23-5.82-1.07-8.26.34l-8.62,5H477.79v12.24a2.4,2.4,0,0,0,1.42,2.22l34.51,19.92c2.12,1.22,5.82,1.07,8.26-.34l33.33-19.24C556.72,229.31,557.4,228.25,557.32,227.27Z" transform="translate(-169.25 -40.07)"/><path class="cls-30" d="M517.56,209.2a9.45,9.45,0,0,0-4.43,1.16l-8.62,5H477.79v12.24a2.4,2.4,0,0,0,1.42,2.22l34.51,19.92a7.41,7.41,0,0,0,3.84.82Z" transform="translate(-169.25 -40.07)"/><path class="cls-25" d="M480.81,215.32h-3v12.24a2.4,2.4,0,0,0,1.42,2.22l1.6.92Z" transform="translate(-169.25 -40.07)"/><path class="cls-20" d="M514.25,250a9.41,9.41,0,0,0,6.61-.07V236h-6.61Z" transform="translate(-169.25 -40.07)"/><path class="cls-31" d="M513.72,237.5l-34.51-19.93c-2.12-1.22-1.85-3.36.59-4.77l33.33-19.24c2.44-1.41,6.14-1.56,8.26-.34l34.51,19.93c2.12,1.22,1.85,3.36-.59,4.77L522,237.16C519.54,238.57,515.84,238.72,513.72,237.5Z" transform="translate(-169.25 -40.07)"/><path class="cls-2" d="M555.31,215.57,522,234.81c-2.44,1.42-6.14,1.57-8.26.35l-34.51-19.93a3.18,3.18,0,0,1-1.06-.94c-.73,1.17-.4,2.44,1.06,3.28l34.51,19.93c2.12,1.22,5.82,1.07,8.26-.34l33.33-19.24c1.9-1.1,2.48-2.63,1.65-3.84A4.58,4.58,0,0,1,555.31,215.57Z" transform="translate(-169.25 -40.07)"/><path class="cls-25" d="M544.63,230.41a3.07,3.07,0,0,1-1.4,2.41c-.77.45-1.39.09-1.39-.8a3.06,3.06,0,0,1,1.39-2.41C544,229.16,544.63,229.52,544.63,230.41Z" transform="translate(-169.25 -40.07)"/><path class="cls-25" d="M549.11,227.82a3.09,3.09,0,0,1-1.39,2.42c-.77.44-1.4.08-1.4-.81a3.07,3.07,0,0,1,1.4-2.41C548.49,226.57,549.11,226.93,549.11,227.82Z" transform="translate(-169.25 -40.07)"/><path class="cls-25" d="M553.6,225.23a3.1,3.1,0,0,1-1.4,2.42c-.77.44-1.39.08-1.39-.81a3.06,3.06,0,0,1,1.39-2.41C553,224,553.6,224.34,553.6,225.23Z" transform="translate(-169.25 -40.07)"/><path class="cls-20" d="M515.76,225.15l-16.15-9.33c-1-.57-.87-1.57.28-2.23l15.59-9a4.28,4.28,0,0,1,3.87-.16l16.15,9.32c1,.57.87,1.57-.28,2.23l-15.59,9A4.31,4.31,0,0,1,515.76,225.15Z" transform="translate(-169.25 -40.07)"/><path class="cls-25" d="M517.31,217.34l-2.24-1.29c-.13-.08-.12-.22,0-.31l2.16-1.25a.59.59,0,0,1,.53,0l2.24,1.29c.13.08.12.22,0,.31l-2.16,1.25A.59.59,0,0,1,517.31,217.34Z" transform="translate(-169.25 -40.07)"/><path class="cls-23" d="M499.61,215.82l.05,0a1.34,1.34,0,0,1,.23-.16l15.59-9a4.25,4.25,0,0,1,3.87-.16l16.1,9.29c.92-.65,1-1.54,0-2.07l-16.15-9.32a4.28,4.28,0,0,0-3.87.16l-15.59,9C498.74,214.25,498.62,215.25,499.61,215.82Z" transform="translate(-169.25 -40.07)"/><path class="cls-5" d="M260.78,272.66l-34.51-19.92c-2.12-1.22-1.86-3.36.59-4.77l33.32-19.24c2.45-1.41,6.15-1.57,8.27-.35L303,248.31c2.12,1.22,1.85,3.36-.59,4.77L269,272.32C266.6,273.73,262.9,273.89,260.78,272.66Z" transform="translate(-169.25 -40.07)"/><path class="cls-2" d="M264.38,264.55a9.32,9.32,0,0,1-4.58-1.09h0l-34.52-19.93a4.38,4.38,0,0,1-2.4-3.77,5.26,5.26,0,0,1,3-4.39l33.32-19.24c3.09-1.79,7.48-1.93,10.23-.35l34.51,19.93a4.4,4.4,0,0,1,2.41,3.77,5.28,5.28,0,0,1-3,4.39L270,263.11A11.41,11.41,0,0,1,264.38,264.55Zm-2.62-4.49c1.52.88,4.46.72,6.3-.34l33.33-19.24c.83-.48,1-.92,1-1a1.23,1.23,0,0,0-.45-.38l-34.51-19.92c-1.52-.88-4.47-.72-6.31.34l-33.32,19.24c-.84.48-1,.92-1,1a1.14,1.14,0,0,0,.44.38l34.52,19.92Z" transform="translate(-169.25 -40.07)"/><path class="cls-23" d="M304.38,227.27h0V215.36h-26.7L268.45,210c-2.12-1.23-5.82-1.07-8.27.34l-8.61,5H224.85v12.24a2.4,2.4,0,0,0,1.42,2.22l34.51,19.92c2.12,1.22,5.82,1.07,8.26-.34l33.33-19.24C303.78,229.31,304.46,228.25,304.38,227.27Z" transform="translate(-169.25 -40.07)"/><path class="cls-32" d="M264.61,209.2a9.48,9.48,0,0,0-4.43,1.16l-8.61,5H224.85v12.24a2.4,2.4,0,0,0,1.42,2.22l34.51,19.92a7.4,7.4,0,0,0,3.83.82Z" transform="translate(-169.25 -40.07)"/><path class="cls-25" d="M227.87,215.32h-3v12.24a2.4,2.4,0,0,0,1.42,2.22l1.6.92Z" transform="translate(-169.25 -40.07)"/><path class="cls-20" d="M261.31,250a9.41,9.41,0,0,0,6.61-.07V236h-6.61Z" transform="translate(-169.25 -40.07)"/><path class="cls-33" d="M260.78,237.5l-34.51-19.93c-2.12-1.22-1.86-3.36.59-4.77l33.32-19.24c2.45-1.41,6.15-1.56,8.27-.34L303,213.15c2.12,1.22,1.85,3.36-.59,4.77L269,237.16C266.6,238.57,262.9,238.72,260.78,237.5Z" transform="translate(-169.25 -40.07)"/><path class="cls-2" d="M302.37,215.57,269,234.81c-2.44,1.42-6.14,1.57-8.26.35l-34.51-19.93a3.08,3.08,0,0,1-1.06-.94c-.73,1.17-.4,2.44,1.06,3.28l34.51,19.93c2.12,1.22,5.82,1.07,8.26-.34l33.33-19.24c1.9-1.1,2.47-2.63,1.65-3.84A4.67,4.67,0,0,1,302.37,215.57Z" transform="translate(-169.25 -40.07)"/><path class="cls-25" d="M291.68,230.41a3.06,3.06,0,0,1-1.39,2.41c-.77.45-1.39.09-1.39-.8a3.06,3.06,0,0,1,1.39-2.41C291.06,229.16,291.68,229.52,291.68,230.41Z" transform="translate(-169.25 -40.07)"/><path class="cls-25" d="M296.17,227.82a3.1,3.1,0,0,1-1.4,2.42c-.76.44-1.39.08-1.39-.81a3.09,3.09,0,0,1,1.39-2.41C295.54,226.57,296.17,226.93,296.17,227.82Z" transform="translate(-169.25 -40.07)"/><path class="cls-25" d="M300.65,225.23a3.09,3.09,0,0,1-1.39,2.42c-.77.44-1.39.08-1.39-.81a3.06,3.06,0,0,1,1.39-2.41C300,224,300.65,224.34,300.65,225.23Z" transform="translate(-169.25 -40.07)"/><path class="cls-20" d="M262.82,225.15l-16.15-9.33c-1-.57-.87-1.57.28-2.23l15.59-9a4.28,4.28,0,0,1,3.87-.16l16.15,9.32c1,.57.86,1.57-.28,2.23l-15.59,9A4.31,4.31,0,0,1,262.82,225.15Z" transform="translate(-169.25 -40.07)"/><path class="cls-25" d="M264.36,217.34l-2.23-1.29c-.14-.08-.12-.22,0-.31l2.16-1.25a.58.58,0,0,1,.53,0l2.24,1.29c.13.08.12.22,0,.31l-2.16,1.25A.61.61,0,0,1,264.36,217.34Z" transform="translate(-169.25 -40.07)"/><path class="cls-23" d="M246.67,215.82l0,0,.24-.16,15.59-9a4.25,4.25,0,0,1,3.87-.16l16.1,9.29c.92-.65,1-1.54.05-2.07l-16.15-9.32a4.28,4.28,0,0,0-3.87.16l-15.59,9C245.8,214.25,245.68,215.25,246.67,215.82Z" transform="translate(-169.25 -40.07)"/></svg>